<svg xmlns="http://www.w3.org/2000/svg" viewBox="0 0 640 280" role="img" aria-labelledby="title desc">
  <title id="title">Embodied intelligence research illustration</title>
  <desc id="desc">A clean line illustration of a robot arm, camera perception, and an object interaction.</desc>
  <defs>
    <linearGradient id="bg" x1="0" y1="0" x2="1" y2="1"><stop stop-color="#edf3f0"/><stop offset="1" stop-color="#dce9e7"/></linearGradient>
    <linearGradient id="cube" x1="0" y1="0" x2="1" y2="1"><stop stop-color="#f1b764"/><stop offset="1" stop-color="#d88938"/></linearGradient>
  </defs>
  <rect width="640" height="280" fill="url(#bg)"/>
  <path d="M0 226H640" stroke="#b7c9c5"/>
  <path d="M72 91L190 105L276 175" fill="none" stroke="#77a0a1" stroke-width="2" stroke-dasharray="6 8"/>
  <path d="M72 91L190 105" stroke="#e2a552" stroke-width="2"/>
  <g transform="translate(58 58)">
    <rect width="35" height="52" rx="8" fill="#173f53"/>
    <circle cx="17.5" cy="24" r="9" fill="#e8a94c"/>
    <path d="M9 41h17" stroke="#e8a94c" stroke-width="3" stroke-linecap="round"/>
  </g>
  <g fill="none" stroke="#173f53" stroke-width="9" stroke-linecap="round" stroke-linejoin="round">
    <path d="M176 226V174L230 121L303 145L369 93"/>
    <path d="M176 226h-44M176 226h48"/>
  </g>
  <g fill="#f4f3e9" stroke="#173f53" stroke-width="4">
    <circle cx="176" cy="174" r="15"/><circle cx="230" cy="121" r="15"/><circle cx="303" cy="145" r="15"/><circle cx="369" cy="93" r="15"/>
  </g>
  <path d="M384 93l22-9-3 25z" fill="#173f53"/>
  <g transform="translate(453 157)">
    <path d="M0 31L39 0l39 31-39 31z" fill="url(#cube)" stroke="#a86631" stroke-width="3"/>
    <path d="M39 0v62M0 31l39 31 39-31" fill="none" stroke="#a86631" stroke-width="3"/>
  </g>
  <g fill="#173f53" font-family="Arial, sans-serif" font-size="12" font-weight="700" letter-spacing="2">
    <text x="48" y="137">OBSERVE</text><text x="270" y="252">LEARN + ACT</text>
  </g>
  <circle cx="407" cy="83" r="4" fill="#e8a94c"/><circle cx="430" cy="70" r="4" fill="#e8a94c"/>
</svg>
