<svg xmlns="http://www.w3.org/2000/svg" viewBox="0 0 640 280" role="img" aria-labelledby="title desc">
  <title id="title">Robotic planning research illustration</title>
  <desc id="desc">A planning graph links perception and language reasoning to a robotic arm action.</desc>
  <rect width="640" height="280" fill="#edf2ef"/>
  <g stroke="#91aaa9" stroke-width="2" fill="none">
    <path d="M115 86L254 54L364 111L484 70L541 175L409 218L280 183L115 86z"/>
    <path d="M254 54l26 129M364 111l45 107M484 70l-75 148M115 86l165 97"/>
  </g>
  <g fill="#173f53" stroke="#f4f3e9" stroke-width="4">
    <circle cx="115" cy="86" r="13"/><circle cx="254" cy="54" r="13"/><circle cx="364" cy="111" r="13"/>
    <circle cx="484" cy="70" r="13"/><circle cx="541" cy="175" r="13"/><circle cx="409" cy="218" r="13"/><circle cx="280" cy="183" r="13"/>
  </g>
  <g transform="translate(62 153)" fill="none" stroke="#173f53" stroke-width="8" stroke-linecap="round" stroke-linejoin="round">
    <path d="M0 74h85M37 74V34l43-24 31 28"/><path d="M111 38l25-23 26 14"/>
  </g>
  <circle cx="117" cy="187" r="11" fill="#e8a94c" stroke="#f4f3e9" stroke-width="4"/>
  <g transform="translate(444 24)">
    <rect width="142" height="61" rx="12" fill="#173f53"/>
    <text x="21" y="29" fill="#e8a94c" font-family="Arial, sans-serif" font-size="14" font-weight="700" letter-spacing="2">LLM</text>
    <text x="21" y="49" fill="#c9d9d0" font-family="Arial, sans-serif" font-size="11">reasoning</text>
  </g>
  <path d="M409 55h29M177 187h53" stroke="#e8a94c" stroke-width="3" stroke-dasharray="6 7"/>
  <g fill="#173f53" font-family="Arial, sans-serif" font-size="12" font-weight="700" letter-spacing="2">
    <text x="35" y="250">PERCEPTION</text><text x="474" y="117">ACTION</text>
  </g>
</svg>
